<svg width="478" height="444" viewBox="0 0 478 444" fill="none" xmlns="http://www.w3.org/2000/svg">
<path fill-rule="evenodd" clip-rule="evenodd" d="M284.505 7.82901C330.099 -17.3605 356.181 24.2177 363.523 48.1556C367.139 69.2529 357.802 124.731 291.526 177.867C315.653 163.585 372.284 134.372 405.797 131.778C447.687 128.535 498.094 155.511 467.821 212.836C443.603 258.697 344.853 247.801 298.506 236.62C345.092 258.499 433.052 315.817 412.211 370.052C391.369 424.288 338.069 403.478 314.024 386.294C295.695 365.09 257.078 313.584 249.249 277.185C252.893 311.492 253.24 387.957 225.474 419.358C190.767 458.609 122.514 452.06 124.529 387.314C126.209 367.222 140.978 314.502 186.618 264.363C164.249 281.321 108.618 315.506 65.0399 316.585C10.5673 317.933 -30.7161 252.94 30.2795 214.2C45.5054 204.794 95.3295 189.963 172.82 205.882C138.395 184.177 68.8379 132.951 66.0146 101.691C60.1908 66.3584 73.4487 0.174536 154.504 36.4562C168.284 44.3524 202.14 78.6731 229.385 159.185C228.761 119.228 238.912 33.0186 284.505 7.82901ZM242.067 187.937C223.434 186.379 207.074 200.109 205.528 218.604C203.983 237.099 217.835 253.354 236.469 254.912C255.103 256.469 271.461 242.739 273.007 224.244C274.553 205.75 260.701 189.494 242.067 187.937Z" fill="white"/>
</svg>
