<svg width="881" height="482" viewBox="0 0 881 482" fill="none" xmlns="http://www.w3.org/2000/svg">
<path d="M104.72 481.939C89.616 481.939 76.6939 478.751 65.9534 472.374C52.8634 464.318 46.3184 453.41 46.3184 439.649C46.3184 399.036 83.5745 360.438 158.087 323.853C184.602 310.763 211.621 299.519 239.144 290.121C266.666 280.387 294.692 272.332 323.222 265.955C324.9 259.242 326.746 245.481 328.76 224.671C331.109 203.526 333.627 175.667 336.312 141.096C335.305 142.775 333.962 144.956 332.284 147.641C330.942 149.991 329.935 151.501 329.263 152.173C322.215 161.906 313.32 174.157 302.58 188.925C292.175 203.358 279.589 219.972 264.82 238.768C251.059 256.221 238.473 269.311 227.061 278.038C215.649 286.429 205.58 290.624 196.853 290.624C173.694 290.624 162.114 279.884 162.114 258.403C162.114 238.264 172.687 207.385 193.832 165.766C215.313 123.811 226.054 96.624 226.054 84.2053C226.054 64.4025 213.635 54.5011 188.798 54.5011C161.275 54.5011 130.564 64.4025 96.6645 84.2053C62.4291 104.679 39.9412 126.999 29.2007 151.166C23.1592 164.256 20.1384 174.828 20.1384 182.884C20.1384 193.288 26.0121 198.491 37.7596 198.491C40.4447 198.491 44.3046 197.987 49.3392 196.981C55.0451 195.974 58.9049 195.47 60.9188 195.47C63.6039 195.47 64.9465 196.309 64.9465 197.987C64.9465 202.351 60.2475 205.707 50.8496 208.057C47.4931 209.064 44.1367 209.735 40.7803 210.071C37.4239 210.406 34.4032 210.574 31.718 210.574C10.5727 210.574 0 201.847 0 184.394C0 176.339 2.18166 167.78 6.54499 158.718C19.9706 129.517 46.8219 102.666 87.0987 78.1638C126.033 54.3333 162.114 42.4181 195.343 42.4181C228.236 42.4181 244.682 55.8437 244.682 82.6949C244.682 95.4493 239.815 111.896 230.082 132.034C225.383 141.768 219.509 154.354 212.46 169.794C205.412 184.897 197.524 202.854 188.798 223.664C185.441 231.384 183.092 238.432 181.749 244.809C180.742 251.187 180.239 256.725 180.239 261.424C180.239 271.157 183.931 276.024 191.315 276.024C209.44 276.024 233.942 257.06 264.82 219.133C269.519 213.427 275.393 206.043 282.442 196.981C289.826 187.918 298.217 177.346 307.615 165.263C310.971 159.557 315.167 152.676 320.201 144.621C325.571 136.23 331.613 126.664 338.326 115.923L340.34 99.3091C341.011 93.9389 345.039 87.8974 352.423 81.1845C360.142 74.1361 366.352 70.6119 371.051 70.6119C375.078 70.6119 377.092 72.7935 377.092 77.1569C377.092 78.4994 376.924 79.3385 376.589 79.6742L372.058 91.2538C369.372 98.6378 366.687 108.707 364.002 121.461C361.317 134.216 358.632 149.991 355.947 168.787C354.604 179.192 352.59 192.449 349.905 208.56C347.22 224.335 343.696 242.628 339.333 263.437H344.367C348.731 263.437 352.926 263.605 356.954 263.941C361.317 264.276 365.68 264.948 370.044 265.955C382.127 268.304 388.168 272.5 388.168 278.541C388.168 282.233 386.322 284.079 382.63 284.079C381.623 284.079 380.113 283.744 378.099 283.072C369.037 279.045 360.646 277.031 352.926 277.031C347.22 277.031 341.514 277.702 335.808 279.045C319.698 333.418 291.504 379.737 251.227 418C206.587 460.626 157.751 481.939 104.72 481.939ZM103.209 467.842C128.047 467.842 151.71 462.976 174.197 453.242C205.412 439.816 234.948 415.986 262.807 381.751C276.904 364.297 288.315 347.18 297.042 330.398C306.104 313.951 313.153 297.673 318.187 281.562C273.211 289.953 222.698 308.413 166.646 336.943C95.8254 372.521 60.4153 407.427 60.4153 441.663C60.4153 459.116 74.68 467.842 103.209 467.842Z" fill="white"/>
<path d="M578.328 346.372C569.681 355.17 559.82 362.528 548.746 368.444C532.21 377.395 514.006 381.87 494.133 381.87C472.591 381.87 452.945 376.636 435.196 366.169C417.447 355.55 403.263 341.365 392.644 323.616C382.176 305.715 376.942 285.994 376.942 264.452C376.942 242.759 380.529 220.988 390.996 203.239C401.616 185.49 416.764 170.863 434.514 160.396C452.263 149.776 472.591 147.034 494.133 147.034C515.826 147.034 535.548 152.344 553.297 162.963C571.046 173.43 585.155 187.539 595.622 205.288C606.241 223.037 611.551 242.759 611.551 264.452C611.551 268.548 611.323 272.568 610.868 276.512C610.868 277.878 610.717 279.091 610.413 280.153H409.255C416.385 294.11 426.094 307.46 438.382 320.203C452.339 334.008 467.206 344.475 482.983 351.605C498.76 358.735 513.93 362.3 528.494 362.3C537.596 362.3 546.091 360.859 553.98 357.977C561.868 355.095 568.771 350.695 574.687 344.779L575.597 343.869L578.328 346.372ZM403.237 268.524H588.892C583.279 244.707 570.667 230.091 549.884 208.701C535.927 194.896 521.06 184.429 505.283 177.299C489.506 170.017 474.336 166.376 459.772 166.376C450.822 166.376 442.402 167.817 434.514 170.7C426.625 173.582 419.723 177.981 413.806 183.898C407.89 189.966 403.49 196.944 400.608 204.833C397.877 212.721 396.512 221.141 396.512 230.091C396.512 244.958 395.956 252.443 403.237 268.524Z" fill="white"/>
<path d="M638.017 382.593V306.318H644.311L669.735 354.65L643.555 382.593H638.017ZM644.814 198.074C644.814 180.453 650.436 166.104 661.68 155.028C673.092 143.952 688.447 138.414 707.747 138.414C719.83 138.414 730.402 141.099 739.465 146.469C748.527 151.84 755.743 158.804 761.114 167.363L758.345 172.146C752.806 163.923 745.674 157.294 736.947 152.259C728.221 147.225 718.571 144.707 707.998 144.707C695.915 144.707 686.35 147.728 679.301 153.77C672.253 159.811 668.729 167.783 668.729 177.684C668.729 188.928 673.847 198.829 684.084 207.388C694.321 215.947 710.348 224.674 732.165 233.568C753.981 242.798 771.183 253.455 783.769 265.538C796.524 277.453 802.901 294.319 802.901 316.136C802.901 337.785 795.685 355.07 781.252 367.992C766.819 380.914 749.45 387.375 729.144 387.375C712.697 387.375 698.852 383.767 687.608 376.551C676.532 369.335 668.225 361.699 662.687 353.644L667.722 349.112C672.253 356.664 679.889 363.797 690.629 370.509C701.37 377.222 713.704 380.579 727.633 380.579C742.402 380.579 754.065 376.215 762.624 367.489C771.351 358.762 775.714 347.938 775.714 335.015C775.714 320.415 769.588 308.752 757.338 300.025C745.255 291.298 727.969 282.152 705.481 272.586C682.825 262.517 667.05 252.028 658.156 241.12C649.261 230.212 644.814 215.863 644.814 198.074ZM755.827 169.88L777.728 143.449H783.518V217.709H776.973L755.827 169.88Z" fill="white"/>
<path d="M829.46 382.512C829.46 376.285 829.46 366.943 829.46 354.488C829.624 342.032 829.706 332.691 829.706 326.463H877.889C877.889 332.691 877.889 342.032 877.889 354.488C878.052 366.943 878.134 376.285 878.134 382.512H829.46ZM860.68 251.239C860.189 257.139 857.812 260.089 853.551 260.089C849.29 260.089 846.914 257.139 846.422 251.239C833.475 115.213 827.002 42.7745 827.002 33.9246C827.002 22.1247 828.968 13.5207 832.902 8.11241C836.835 2.70414 843.718 0 853.551 0C863.385 0 870.268 2.70414 874.201 8.11241C878.134 13.5207 880.101 22.1247 880.101 33.9246C880.101 42.7745 873.628 115.213 860.68 251.239Z" fill="white"/>
</svg>
